<?xml version="1.0" encoding="UTF-8"?> <svg xmlns="http://www.w3.org/2000/svg" width="24" height="24" viewBox="0 0 24 24" fill="none"><path d="M13.6615 4.42529L13.593 4.2203C13.5018 3.94716 13.3339 3.71361 13.1152 3.54989C12.8968 3.38638 12.6381 3.3 12.3746 3.3C12.1111 3.3 11.8524 3.38638 11.634 3.54989C11.4153 3.71361 11.2474 3.94716 11.1562 4.2203L11.0877 4.42529H10.8716L9.71899 4.42529C9.71894 4.42529 9.71889 4.42529 9.71885 4.42529C9.66323 4.42535 9.60619 4.44863 9.56135 4.49613C9.51592 4.54426 9.48762 4.613 9.48762 4.68801L9.48762 6.93801L9.48762 6.93814M13.6615 4.42529L9.71885 7.5006C9.57798 7.50054 9.44289 7.44126 9.34328 7.33579C9.24367 7.23032 9.18769 7.08729 9.18762 6.93814H9.48762M13.6615 4.42529H13.8776L15.0314 4.42529L15.0315 4.12529V4.42529M13.6615 4.42529H15.0315M9.48762 6.93814C9.48769 7.01307 9.51599 7.08173 9.56139 7.1298C9.60627 7.17732 9.66334 7.20058 9.71899 7.2006M9.48762 6.93814L9.71899 7.2006M15.0314 7.2006H9.71899M15.0314 7.2006L15.0315 7.5006M15.0314 7.2006H15.0315V7.5006M15.0314 7.2006C15.087 7.20058 15.1441 7.17732 15.189 7.1298C15.2344 7.0817 15.2627 7.013 15.2628 6.93801M9.71899 7.2006L15.0315 7.5006M15.0315 7.5006C15.1724 7.50054 15.3075 7.44126 15.4071 7.33579C15.5067 7.23032 15.5627 7.08729 15.5628 6.93814M15.2628 6.93801V6.93814H15.5628M15.2628 6.93801V4.68801C15.2628 4.61299 15.2345 4.54426 15.189 4.49613C15.1442 4.44863 15.0872 4.42535 15.0315 4.42529M15.2628 6.93801L15.5628 6.93814M15.5628 6.93814L15.0315 4.42529" stroke="#F85B00" stroke-width="0.6"></path><path d="M16.9257 6.93796V5.55031H17.6882V5.55032L17.6915 5.55029C17.789 5.5492 17.8862 5.56871 17.9775 5.60816C18.0688 5.64763 18.153 5.70652 18.2246 5.78231C18.2962 5.85813 18.3537 5.94927 18.3928 6.0508L18.6727 5.94291L18.3928 6.0508C18.4319 6.15235 18.4517 6.26169 18.4506 6.37226L18.4506 6.37226V6.37524L18.4506 19.875L18.4506 19.878C18.4517 19.9885 18.4319 20.0979 18.3928 20.1994L18.6727 20.3073L18.3928 20.1994C18.3537 20.301 18.2962 20.3921 18.2246 20.4679C18.153 20.5437 18.0688 20.6026 17.9775 20.6421C17.8862 20.6815 17.789 20.701 17.6915 20.6999V20.6999H17.6882H7.0625V20.6999L7.05917 20.6999C6.96166 20.701 6.86449 20.6815 6.77318 20.6421C6.68182 20.6026 6.59764 20.5437 6.52607 20.4679C6.45446 20.3921 6.397 20.301 6.35787 20.1994C6.31873 20.0979 6.29895 19.9885 6.30004 19.878L6.30006 19.878V19.875V6.37551C6.3005 6.15145 6.38491 5.9399 6.5299 5.78637C6.67434 5.63343 6.86635 5.55075 7.06282 5.55031H7.82519L7.82519 6.93796L7.82519 6.9383C7.82578 7.45983 8.02155 7.96302 8.37449 8.33671C8.72797 8.71099 9.211 8.92498 9.71872 8.92562H9.7191L15.0318 8.92562L15.0322 8.92562C15.5399 8.92498 16.0229 8.71099 16.3764 8.33671C16.7293 7.96302 16.9251 7.45983 16.9257 6.9383V6.93796Z" stroke="#F85B00" stroke-width="0.6"></path></svg> 