<?xml version="1.0" encoding="UTF-8"?> <svg xmlns="http://www.w3.org/2000/svg" width="24" height="24" viewBox="0 0 24 24" fill="none"><path d="M18.62 7.40761L14.3817 3.15541C14.2822 3.0559 14.1475 3.00001 14.0071 3H6.58948C6.16808 3.00049 5.76407 3.16864 5.46609 3.46755C5.16811 3.76646 5.00049 4.17173 5 4.59446V19.5466C5.00049 19.9694 5.16811 20.3746 5.46609 20.6735C5.76407 20.9725 6.16808 21.1406 6.58948 21.1411H17.186C17.6074 21.1406 18.0114 20.9725 18.3094 20.6735C18.6074 20.3746 18.775 19.9694 18.7755 19.5466V7.78338C18.7749 7.64249 18.719 7.50752 18.62 7.40761ZM14.5369 4.81451L16.9667 7.25189H15.0667C14.9263 7.25173 14.7916 7.19568 14.6923 7.09604C14.5929 6.9964 14.5371 6.86131 14.5369 6.72041V4.81451ZM17.186 20.0781H6.58948C6.44901 20.078 6.31435 20.0219 6.21502 19.9223C6.11569 19.8226 6.05982 19.6875 6.05965 19.5466V4.59446C6.05982 4.45355 6.11569 4.31846 6.21502 4.21882C6.31435 4.11919 6.44901 4.06314 6.58948 4.06297H13.4772V6.72041C13.4777 7.14313 13.6454 7.5484 13.9433 7.84731C14.2413 8.14623 14.6453 8.31437 15.0667 8.31487H17.7159V19.5466C17.7157 19.6875 17.6598 19.8226 17.5605 19.9223C17.4612 20.0219 17.3265 20.078 17.186 20.0781Z" fill="#F85B00"></path><path d="M15.0667 10.5117H8.70878C8.63921 10.5117 8.57031 10.5255 8.50603 10.5522C8.44175 10.5789 8.38334 10.618 8.33414 10.6674C8.28494 10.7167 8.24591 10.7753 8.21929 10.8398C8.19266 10.9043 8.17896 10.9734 8.17896 11.0432C8.17896 11.113 8.19266 11.1821 8.21929 11.2466C8.24591 11.3111 8.28494 11.3697 8.33414 11.419C8.38334 11.4684 8.44175 11.5075 8.50603 11.5342C8.57031 11.5609 8.63921 11.5747 8.70878 11.5747H15.0667C15.1363 11.5747 15.2052 11.5609 15.2695 11.5342C15.3337 11.5075 15.3922 11.4684 15.4414 11.419C15.4906 11.3697 15.5296 11.3111 15.5562 11.2466C15.5828 11.1821 15.5965 11.113 15.5965 11.0432C15.5965 10.9734 15.5828 10.9043 15.5562 10.8398C15.5296 10.7753 15.4906 10.7167 15.4414 10.6674C15.3922 10.618 15.3337 10.5789 15.2695 10.5522C15.2052 10.5255 15.1363 10.5117 15.0667 10.5117Z" fill="#F85B00"></path><path d="M15.0667 12.6375H8.70878C8.56827 12.6375 8.4335 12.6934 8.33414 12.7931C8.23478 12.8928 8.17896 13.028 8.17896 13.1689C8.17896 13.3099 8.23478 13.4451 8.33414 13.5448C8.4335 13.6444 8.56827 13.7004 8.70878 13.7004H15.0667C15.2072 13.7004 15.342 13.6444 15.4414 13.5448C15.5407 13.4451 15.5965 13.3099 15.5965 13.1689C15.5965 13.028 15.5407 12.8928 15.4414 12.7931C15.342 12.6934 15.2072 12.6375 15.0667 12.6375Z" fill="#F85B00"></path><path d="M15.0667 14.7637H8.70878C8.56827 14.7637 8.4335 14.8197 8.33414 14.9193C8.23478 15.019 8.17896 15.1542 8.17896 15.2952C8.17896 15.4361 8.23478 15.5713 8.33414 15.671C8.4335 15.7707 8.56827 15.8266 8.70878 15.8266H15.0667C15.2072 15.8266 15.342 15.7707 15.4414 15.671C15.5407 15.5713 15.5965 15.4361 15.5965 15.2952C15.5965 15.1542 15.5407 15.019 15.4414 14.9193C15.342 14.8197 15.2072 14.7637 15.0667 14.7637Z" fill="#F85B00"></path><path d="M12.9474 16.8889H8.70878C8.56827 16.8889 8.4335 16.9449 8.33414 17.0446C8.23478 17.1443 8.17896 17.2794 8.17896 17.4204C8.17896 17.5614 8.23478 17.6965 8.33414 17.7962C8.4335 17.8959 8.56827 17.9519 8.70878 17.9519H12.9474C13.0879 17.9519 13.2227 17.8959 13.322 17.7962C13.4214 17.6965 13.4772 17.5614 13.4772 17.4204C13.4772 17.2794 13.4214 17.1443 13.322 17.0446C13.2227 16.9449 13.0879 16.8889 12.9474 16.8889Z" fill="#F85B00"></path></svg> 