<?xml version="1.0" encoding="UTF-8"?> <svg xmlns="http://www.w3.org/2000/svg" width="24" height="24" viewBox="0 0 24 24" fill="none"><g clip-path="url(#clip0_26_483)"><path d="M19.8774 5H3.72262C3.26599 5.00074 2.8283 5.17117 2.50541 5.47394C2.18253 5.77672 2.00079 6.18716 2 6.61535L2 17.3847C2.00072 17.8129 2.18244 18.2233 2.50534 18.5261C2.82823 18.8289 3.26597 18.9993 3.72262 19H19.8774C20.334 18.9993 20.7718 18.8289 21.0947 18.5261C21.4176 18.2233 21.5993 17.8129 21.6 17.3847V6.61535C21.5993 6.18714 21.4176 5.77666 21.0947 5.47387C20.7718 5.17108 20.334 5.00067 19.8774 5ZM19.6396 6.07698L11.8365 13.3939L3.96611 6.07698H19.6396ZM3.1485 17.1617V6.83273L8.67928 11.9745L3.1485 17.1617ZM3.96068 17.923L9.49472 12.7333L11.434 14.5363C11.5418 14.6366 11.6876 14.6927 11.8394 14.6924C11.9913 14.6922 12.1368 14.6355 12.2442 14.5348L14.1351 12.7616L19.6396 17.9233L3.96068 17.923ZM20.4518 17.1614L14.9481 12L20.4515 6.83833L20.4518 17.1614Z" fill="#F85B00"></path></g><defs><clipPath id="clip0_26_483"><rect width="19.6" height="14" fill="white" transform="translate(2 5)"></rect></clipPath></defs></svg> 