<?xml version="1.0" encoding="UTF-8"?> <svg xmlns="http://www.w3.org/2000/svg" width="226" height="186" viewBox="0 0 226 186" fill="none"><path fill-rule="evenodd" clip-rule="evenodd" d="M120.237 33.4511C116.479 19.8496 94.5211 19.8496 90.7625 33.4511C90.2014 35.4949 89.1007 37.3931 87.5502 38.9912C85.9996 40.5892 84.0429 41.842 81.8394 42.6475C79.6358 43.453 77.2476 43.7886 74.8691 43.6268C72.4907 43.4651 70.1891 42.8106 68.1518 41.7166C54.5815 34.4276 39.0527 48.1163 47.3215 60.0786C52.6626 67.8035 47.9249 77.8825 37.9548 80.0187C22.5151 83.3231 22.5151 102.688 37.9548 105.984C40.274 106.479 42.4277 107.45 44.2406 108.818C46.0535 110.186 47.4742 111.912 48.3872 113.855C49.3001 115.799 49.6794 117.905 49.4943 120.002C49.3091 122.099 48.5646 124.128 47.3215 125.924C39.0527 137.886 54.5815 151.575 68.1518 144.286C70.1888 143.19 72.4905 142.534 74.8696 142.37C77.2487 142.207 79.6379 142.541 81.8427 143.346C84.0474 144.151 86.0054 145.403 87.5571 147.001C89.1089 148.599 90.2105 150.498 90.7724 152.542C94.5211 166.153 116.489 166.153 120.228 152.542C120.791 150.499 121.894 148.602 123.446 147.005C124.998 145.408 126.956 144.156 129.16 143.352C131.364 142.547 133.752 142.213 136.131 142.375C138.509 142.537 140.811 143.192 142.848 144.286C156.419 151.575 171.947 137.886 163.678 125.924C162.438 124.128 161.695 122.099 161.511 120.002C161.327 117.906 161.707 115.8 162.619 113.857C163.532 111.915 164.952 110.189 166.763 108.821C168.575 107.453 170.727 106.48 173.045 105.984C188.485 102.679 188.485 83.3144 173.045 80.0187C170.726 79.5234 168.572 78.5523 166.759 77.1844C164.947 75.8165 163.526 74.0906 162.613 72.1471C161.7 70.2036 161.321 68.0975 161.506 66.0003C161.691 63.9031 162.435 61.8741 163.678 60.0786C171.947 48.1163 156.419 34.4276 142.848 41.7166C140.811 42.8124 138.509 43.4686 136.13 43.6319C133.751 43.7951 131.362 43.4607 129.157 42.656C126.953 41.8512 124.995 40.5988 123.443 39.0008C121.891 37.4027 120.789 35.5042 120.228 33.4598L120.237 33.4511Z" stroke="white" stroke-width="7"></path><path d="M123.083 93C123.083 101.56 115.211 108.5 105.5 108.5C95.789 108.5 87.9167 101.56 87.9167 93C87.9167 84.4396 95.789 77.5 105.5 77.5C115.211 77.5 123.083 84.4396 123.083 93Z" stroke="white" stroke-width="7"></path><path d="M163.157 140.35L184.5 119.6M184.5 119.6L205.843 140.35M184.5 119.6V169.4" stroke="#F85B00" stroke-width="10" stroke-linecap="round" stroke-linejoin="round"></path></svg> 