<?xml version="1.0" encoding="UTF-8"?> <svg xmlns="http://www.w3.org/2000/svg" width="114" height="95" viewBox="0 0 114 95" fill="none"><path d="M59.766 42.3122C59.766 41.9989 59.876 41.7289 60.096 41.5022C60.316 41.2755 60.5927 41.1622 60.926 41.1622C61.2593 41.1622 61.5427 41.2755 61.776 41.5022C62.0093 41.7289 62.126 41.9989 62.126 42.3122C62.126 42.6255 62.0093 42.8889 61.776 43.1022C61.5427 43.3155 61.2593 43.4222 60.926 43.4222C60.5927 43.4222 60.316 43.3155 60.096 43.1022C59.876 42.8822 59.766 42.6189 59.766 42.3122ZM63.3402 42.3122C63.3402 41.9989 63.4502 41.7289 63.6702 41.5022C63.8902 41.2755 64.1669 41.1622 64.5002 41.1622C64.8336 41.1622 65.1169 41.2755 65.3502 41.5022C65.5836 41.7289 65.7002 41.9989 65.7002 42.3122C65.7002 42.6255 65.5836 42.8889 65.3502 43.1022C65.1169 43.3155 64.8336 43.4222 64.5002 43.4222C64.1669 43.4222 63.8902 43.3155 63.6702 43.1022C63.4502 42.8822 63.3402 42.6189 63.3402 42.3122ZM66.9145 42.3122C66.9145 41.9989 67.0245 41.7289 67.2445 41.5022C67.4645 41.2755 67.7411 41.1622 68.0745 41.1622C68.4078 41.1622 68.6911 41.2755 68.9245 41.5022C69.1578 41.7289 69.2745 41.9989 69.2745 42.3122C69.2745 42.6255 69.1578 42.8889 68.9245 43.1022C68.6911 43.3155 68.4078 43.4222 68.0745 43.4222C67.7411 43.4222 67.4645 43.3155 67.2445 43.1022C67.0245 42.8822 66.9145 42.6189 66.9145 42.3122Z" fill="white"></path><path d="M98.5498 58.9016C98.9335 59.1563 99.3878 59.2233 99.8135 59.0879C100.239 58.9524 100.602 58.6257 100.822 58.1788C101.005 57.8025 101.289 57.5076 101.63 57.3403C101.971 57.1731 102.35 57.143 102.708 57.2547C103.065 57.3664 103.381 57.6137 103.605 57.9577C103.829 58.3017 103.95 58.7231 103.947 59.1556C103.947 59.6737 103.771 60.1706 103.458 60.537C103.144 60.9033 102.719 61.1092 102.276 61.1092C101.833 61.1092 101.408 61.315 101.094 61.6814C100.781 62.0477 100.605 62.5446 100.605 63.0627C100.605 63.5808 100.781 64.0777 101.094 64.4441C101.408 64.8105 101.833 65.0163 102.276 65.0163C103.156 65.0156 104.02 64.7443 104.782 64.2295C105.543 63.7147 106.176 62.9746 106.615 62.0835C107.055 61.1925 107.286 60.1819 107.286 59.1533C107.285 58.1247 107.053 57.1143 106.613 56.2236C106.173 55.333 105.54 54.5935 104.778 54.0794C104.016 53.5653 103.152 53.2948 102.272 53.2949C101.392 53.2951 100.528 53.566 99.766 54.0803C99.0042 54.5947 98.3715 55.3345 97.9316 56.2253C97.8211 56.4482 97.7494 56.6946 97.7207 56.95C97.692 57.2055 97.7068 57.4651 97.7643 57.7139C97.8217 57.9627 97.9207 58.1957 98.0555 58.3995C98.1904 58.6034 98.3583 58.774 98.5498 58.9016ZM105.735 72.8305C105.296 72.764 104.853 72.9035 104.502 73.2184C104.151 73.5333 103.922 73.998 103.863 74.5106C103.513 77.8222 102.139 80.8696 99.9996 83.0789C97.8606 85.2882 95.1045 86.5069 92.2503 86.5055H82.9097L83.9959 85.2357C84.3071 84.8696 84.4818 84.3745 84.4818 83.8584C84.4818 83.3423 84.3071 82.8472 83.9959 82.4811C82.3666 80.5688 81.2578 78.1356 80.8092 75.4879C80.3605 72.8402 80.5921 70.0966 81.4747 67.6025C82.3573 65.1084 83.8515 62.9754 85.7691 61.4723C87.6866 59.9692 89.9417 59.1631 92.2503 59.1556C92.6935 59.1556 93.1185 58.9498 93.4319 58.5834C93.7452 58.2171 93.9213 57.7202 93.9213 57.202C93.9213 56.6839 93.7452 56.187 93.4319 55.8207C93.1185 55.4543 92.6935 55.2485 92.2503 55.2485C89.4252 55.2623 86.6604 56.2062 84.2729 57.9721C81.8854 59.7381 79.9716 62.2546 78.7509 65.2334C77.5301 68.2122 77.0518 71.5328 77.3706 74.8147C77.6895 78.0966 78.7926 81.2072 80.5537 83.79L77.6964 87.072C77.4645 87.3467 77.3075 87.6956 77.245 88.0746C77.1826 88.4535 77.2175 88.8456 77.3455 89.2014C77.4708 89.5582 77.6837 89.8635 77.9573 90.0791C78.2309 90.2946 78.5529 90.4107 78.8828 90.4126H92.2503C95.9121 90.4132 99.4483 88.8517 102.196 86.0211C104.943 83.1905 106.712 79.2853 107.172 75.0381C107.202 74.7827 107.189 74.5227 107.134 74.2732C107.078 74.0237 106.98 73.7895 106.847 73.5843C106.713 73.3791 106.546 73.2068 106.355 73.0775C106.164 72.9481 105.954 72.8642 105.735 72.8305ZM102.911 67.1066C102.607 66.9493 102.269 66.9016 101.942 66.9699L101.641 67.0871L101.34 67.2629L101.09 67.5169C100.939 67.6969 100.82 67.9091 100.739 68.142C100.64 68.3857 100.594 68.6541 100.605 68.9234C100.6 69.184 100.64 69.443 100.722 69.6853C100.808 69.9198 100.933 70.1322 101.09 70.3104C101.246 70.4915 101.431 70.6348 101.635 70.732C101.838 70.8292 102.056 70.8785 102.276 70.877C102.719 70.877 103.144 70.6712 103.458 70.3048C103.771 69.9384 103.947 69.4415 103.947 68.9234C103.953 68.6672 103.907 68.4129 103.813 68.1811C103.634 67.7116 103.313 67.3361 102.911 67.1261V67.1066Z" fill="white"></path><path d="M21.1875 14.478C21.0382 14.6596 20.9196 14.8757 20.8388 15.1137C20.7579 15.3518 20.7163 15.6071 20.7163 15.865C20.7163 16.1229 20.7579 16.3783 20.8388 16.6163C20.9196 16.8544 21.0382 17.0704 21.1875 17.252L24.2459 21.0029C24.394 21.186 24.5702 21.3313 24.7643 21.4305C24.9584 21.5297 25.1666 21.5807 25.3769 21.5807C25.5872 21.5807 25.7954 21.5297 25.9896 21.4305C26.1837 21.3313 26.3599 21.186 26.5079 21.0029L33.0072 13.0324C33.1814 12.8588 33.3237 12.642 33.4248 12.3963C33.5259 12.1505 33.5835 11.8814 33.5939 11.6064C33.6043 11.3315 33.5671 11.0569 33.4849 10.8008C33.4027 10.5447 33.2773 10.3127 33.117 10.1202C32.9566 9.92764 32.7648 9.77883 32.5542 9.68352C32.3437 9.58821 32.1191 9.54854 31.8952 9.56711C31.6712 9.58569 31.453 9.66209 31.2548 9.7913C31.0567 9.92052 30.883 10.0996 30.7452 10.3169L25.3769 16.8613L23.4495 14.478C23.3014 14.2949 23.1252 14.1496 22.9311 14.0504C22.737 13.9512 22.5287 13.9001 22.3185 13.9001C22.1082 13.9001 21.9 13.9512 21.7058 14.0504C21.5117 14.1496 21.3355 14.2949 21.1875 14.478ZM31.7328 21.335C31.3127 21.3797 30.9242 21.6269 30.6524 22.0225C30.3807 22.418 30.2479 22.9295 30.2833 23.4448C30.2912 23.627 30.2912 23.8096 30.2833 23.9918C30.2833 27.6187 29.1084 31.0969 27.0173 33.6615C24.9261 36.226 22.0899 37.6668 19.1325 37.6668H10.2279L11.2474 36.436C11.5441 36.07 11.7106 35.5749 11.7106 35.0588C11.7106 34.5427 11.5441 34.0475 11.2474 33.6815C9.82274 31.9438 8.80742 29.7663 8.30879 27.3792C7.81017 24.9921 7.84675 22.4841 8.41469 20.1204C8.98262 17.7567 10.0608 15.6252 11.5352 13.9511C13.0096 12.277 14.8255 11.1226 16.7909 10.6099C18.2631 10.2489 19.779 10.2489 21.2512 10.6099C21.4604 10.6612 21.6757 10.6615 21.885 10.6108C22.0943 10.56 22.2934 10.4592 22.4709 10.314C22.6484 10.1689 22.8008 9.98233 22.9195 9.76494C23.0383 9.54756 23.1209 9.30363 23.1627 9.04709C23.2046 8.79054 23.2048 8.5264 23.1634 8.26975C23.122 8.0131 23.0398 7.76896 22.9214 7.55127C22.8031 7.33359 22.651 7.14662 22.4737 7.00104C22.2964 6.85546 22.0975 6.75412 21.8884 6.70281C19.9905 6.23448 18.0356 6.23448 16.1378 6.70281C12.9219 7.56368 10.0431 9.74826 7.97976 12.8935C5.91646 16.0387 4.79293 19.9551 4.7959 23.9918C4.80929 27.9893 5.93302 31.8618 7.98182 34.9709L5.25786 38.2333C5.03683 38.508 4.8871 38.8569 4.82756 39.2358C4.76802 39.6148 4.80135 40.0069 4.92334 40.3627C5.04284 40.7194 5.24578 41.0248 5.50658 41.2404C5.76738 41.4559 6.07437 41.572 6.38886 41.5739H19.1325C22.9348 41.5739 26.5814 39.7215 29.2701 36.4242C31.9587 33.127 33.4692 28.6549 33.4692 23.9918C33.4692 23.6988 33.4692 23.4253 33.4692 23.1323C33.4532 22.8736 33.3953 22.6215 33.299 22.3906C33.2027 22.1596 33.0699 21.9545 32.9082 21.7872C32.7466 21.6199 32.5594 21.4938 32.3576 21.4161C32.1558 21.3385 31.9434 21.3109 31.7328 21.335Z" fill="white"></path></svg> 