<?xml version="1.0" encoding="UTF-8"?> <svg xmlns="http://www.w3.org/2000/svg" width="123" height="88" viewBox="0 0 123 88" fill="none"><path d="M17.3681 8.1694C17.2188 8.35101 17.1003 8.56707 17.0194 8.80513C16.9386 9.04319 16.8969 9.29853 16.8969 9.55643C16.8969 9.81432 16.9386 10.0697 17.0194 10.3077C17.1003 10.5458 17.2188 10.7618 17.3681 10.9435L20.4266 14.6943C20.5747 14.8774 20.7509 15.0227 20.945 15.1219C21.1391 15.2211 21.3473 15.2722 21.5576 15.2722C21.7679 15.2722 21.9761 15.2211 22.1702 15.1219C22.3643 15.0227 22.5405 14.8774 22.6886 14.6943L29.1879 6.72376C29.3621 6.55018 29.5044 6.33342 29.6055 6.08768C29.7066 5.84194 29.7642 5.57277 29.7746 5.29781C29.7849 5.02286 29.7478 4.74832 29.6656 4.49219C29.5834 4.23606 29.458 4.00413 29.2976 3.81158C29.1372 3.61904 28.9455 3.47024 28.7349 3.37493C28.5244 3.27961 28.2997 3.23995 28.0758 3.25852C27.8519 3.27709 27.6337 3.35349 27.4355 3.48271C27.2373 3.61192 27.0637 3.79103 26.9259 4.00831L21.5576 10.5527L19.6301 8.1694C19.482 7.98629 19.3059 7.84096 19.1117 7.74178C18.9176 7.6426 18.7094 7.59154 18.4991 7.59154C18.2888 7.59154 18.0806 7.6426 17.8865 7.74178C17.6924 7.84096 17.5162 7.98629 17.3681 8.1694ZM27.9135 15.0264C27.4934 15.0711 27.1048 15.3183 26.8331 15.7139C26.5614 16.1094 26.4286 16.6209 26.4639 17.1362C26.4719 17.3184 26.4719 17.501 26.4639 17.6832C26.4639 21.3101 25.2891 24.7883 23.1979 27.3529C21.1068 29.9174 18.2706 31.3582 15.3132 31.3582H6.40856L7.42805 30.1274C7.72474 29.7614 7.89127 29.2663 7.89127 28.7502C7.89127 28.2341 7.72474 27.7389 7.42805 27.3729C6.0034 25.6352 4.98809 23.4577 4.48946 21.0706C3.99083 18.6835 4.02742 16.1755 4.59535 13.8118C5.16328 11.4482 6.24146 9.31658 7.71589 7.64249C9.19031 5.96839 11.0062 4.814 12.9716 4.30134C14.4437 3.94033 15.9596 3.94033 17.4318 4.30134C17.641 4.35265 17.8564 4.35293 18.0657 4.30216C18.275 4.25139 18.474 4.15056 18.6515 4.00543C18.829 3.86031 18.9815 3.67373 19.1002 3.45635C19.2189 3.23897 19.3015 2.99504 19.3434 2.73849C19.3852 2.48195 19.3855 2.21781 19.3441 1.96116C19.3027 1.70451 19.2204 1.46037 19.1021 1.24268C18.9838 1.02499 18.8316 0.838025 18.6544 0.692446C18.4771 0.546866 18.2782 0.44553 18.069 0.394221C16.1712 -0.0741152 14.2163 -0.0741152 12.3184 0.394221C9.10256 1.25509 6.22373 3.43967 4.16043 6.58488C2.09712 9.73009 0.97359 13.6465 0.976568 17.6832C0.98995 21.6807 2.11368 25.5532 4.16249 28.6623L1.43853 31.9247C1.21749 32.1994 1.06776 32.5483 1.00822 32.9272C0.948688 33.3062 0.982017 33.6983 1.10401 34.0541C1.22351 34.4108 1.42645 34.7162 1.68725 34.9318C1.94805 35.1473 2.25504 35.2634 2.56953 35.2653H15.3132C19.1155 35.2653 22.7621 33.4129 25.4507 30.1156C28.1394 26.8184 29.6498 22.3463 29.6498 17.6832C29.6498 17.3902 29.6498 17.1167 29.6498 16.8237C29.6338 16.565 29.576 16.3129 29.4797 16.082C29.3834 15.851 29.2505 15.6459 29.0889 15.4786C28.9273 15.3113 28.7401 15.1852 28.5383 15.1075C28.3365 15.0299 28.1241 15.0023 27.9135 15.0264Z" fill="white"></path><path d="M69.7925 65.6407H66.6065V57.8264C66.6065 57.3083 66.4387 56.8114 66.14 56.445C65.8412 56.0787 65.4361 55.8728 65.0136 55.8728C64.5911 55.8728 64.1859 56.0787 63.8872 56.445C63.5885 56.8114 63.4206 57.3083 63.4206 57.8264V67.5942C63.4206 68.1123 63.5885 68.6092 63.8872 68.9756C64.1859 69.342 64.5911 69.5478 65.0136 69.5478H69.7925C70.2149 69.5478 70.6201 69.342 70.9189 68.9756C71.2176 68.6092 71.3854 68.1123 71.3854 67.5942C71.3854 67.0761 71.2176 66.5792 70.9189 66.2128C70.6201 65.8465 70.2149 65.6407 69.7925 65.6407ZM65.0136 48.0586C61.863 48.0586 58.7832 49.2043 56.1636 51.3509C53.544 53.4975 51.5022 56.5486 50.2966 60.1183C49.0909 63.6879 48.7754 67.6159 49.3901 71.4054C50.0047 75.195 51.5219 78.6759 53.7497 81.408C55.9775 84.1401 58.8158 86.0007 61.9059 86.7545C64.9959 87.5083 68.1988 87.1214 71.1096 85.6428C74.0203 84.1642 76.5082 81.6602 78.2586 78.4476C80.0089 75.235 80.9432 71.458 80.9432 67.5942C80.9432 65.0288 80.5311 62.4884 79.7306 60.1183C78.9301 57.7481 77.7567 55.5945 76.2775 53.7804C74.7983 51.9664 73.0422 50.5274 71.1096 49.5457C69.1769 48.5639 67.1055 48.0586 65.0136 48.0586ZM65.0136 83.2227C62.4931 83.2227 60.0293 82.3061 57.9336 80.5888C55.8379 78.8716 54.2045 76.4307 53.24 73.575C52.2754 70.7192 52.0231 67.5769 52.5148 64.5452C53.0065 61.5136 54.2202 58.7289 56.0024 56.5432C57.7847 54.3575 60.0554 52.869 62.5274 52.266C64.9994 51.663 67.5618 51.9725 69.8904 53.1554C72.219 54.3383 74.2093 56.3414 75.6096 58.9115C77.0099 61.4816 77.7573 64.5032 77.7573 67.5942C77.7573 71.7392 76.4146 75.7143 74.0247 78.6452C71.6348 81.5761 68.3934 83.2227 65.0136 83.2227Z" fill="white"></path><path d="M108.572 35.9059C108.572 35.5926 108.682 35.3226 108.902 35.0959C109.122 34.8693 109.398 34.7559 109.732 34.7559C110.065 34.7559 110.348 34.8693 110.582 35.0959C110.815 35.3226 110.932 35.5926 110.932 35.9059C110.932 36.2193 110.815 36.4826 110.582 36.6959C110.348 36.9093 110.065 37.0159 109.732 37.0159C109.398 37.0159 109.122 36.9093 108.902 36.6959C108.682 36.4759 108.572 36.2126 108.572 35.9059ZM112.146 35.9059C112.146 35.5926 112.256 35.3226 112.476 35.0959C112.696 34.8693 112.973 34.7559 113.306 34.7559C113.639 34.7559 113.923 34.8693 114.156 35.0959C114.389 35.3226 114.506 35.5926 114.506 35.9059C114.506 36.2193 114.389 36.4826 114.156 36.6959C113.923 36.9093 113.639 37.0159 113.306 37.0159C112.973 37.0159 112.696 36.9093 112.476 36.6959C112.256 36.4759 112.146 36.2126 112.146 35.9059ZM115.72 35.9059C115.72 35.5926 115.83 35.3226 116.05 35.0959C116.27 34.8693 116.547 34.7559 116.88 34.7559C117.213 34.7559 117.497 34.8693 117.73 35.0959C117.963 35.3226 118.08 35.5926 118.08 35.9059C118.08 36.2193 117.963 36.4826 117.73 36.6959C117.497 36.9093 117.213 37.0159 116.88 37.0159C116.547 37.0159 116.27 36.9093 116.05 36.6959C115.83 36.4759 115.72 36.2126 115.72 35.9059Z" fill="white"></path></svg> 