<?xml version="1.0" encoding="UTF-8"?> <svg xmlns="http://www.w3.org/2000/svg" width="202" height="215" viewBox="0 0 202 215" fill="none"><path d="M20.1992 151.048C29.4461 135.853 49.7124 125.454 81.3304 125.454C112.949 125.454 133.215 135.853 142.462 151.048M148.311 113.932C165.055 122.18 173.427 130.427 181.799 146.922M130.897 50.8907C138.776 55.066 144.131 63.2645 144.131 72.6953C144.131 81.8537 139.081 89.8499 131.574 94.1281M106.446 72.695C106.446 86.3602 95.2016 97.4379 81.3304 97.4379C67.4593 97.4379 56.2145 86.3602 56.2145 72.695C56.2145 59.0299 67.4593 47.9521 81.3304 47.9521C95.2016 47.9521 106.446 59.0299 106.446 72.695Z" stroke="white" stroke-width="7" stroke-linecap="round"></path><path d="M166.499 156.333C160.648 156.333 154.929 157.897 150.064 160.827C145.199 163.757 141.407 167.922 139.168 172.795C136.929 177.667 136.343 183.029 137.484 188.202C138.626 193.375 141.443 198.126 145.581 201.856C149.718 205.585 154.989 208.125 160.728 209.154C166.467 210.183 172.415 209.655 177.82 207.636C183.226 205.618 187.846 202.2 191.097 197.815C194.348 193.43 196.083 188.274 196.083 183C196.083 179.498 195.318 176.03 193.831 172.795C192.344 169.559 190.165 166.62 187.418 164.143C184.671 161.667 181.41 159.703 177.82 158.363C174.231 157.023 170.384 156.333 166.499 156.333ZM166.499 204.333C161.819 204.333 157.243 203.082 153.351 200.738C149.459 198.394 146.425 195.062 144.634 191.164C142.843 187.265 142.374 182.976 143.287 178.838C144.201 174.699 146.455 170.898 149.765 167.915C153.074 164.931 157.291 162.899 161.882 162.076C166.473 161.253 171.232 161.676 175.556 163.29C179.881 164.905 183.577 167.639 186.177 171.148C188.778 174.656 190.166 178.78 190.166 183C190.166 188.658 187.673 194.084 183.234 198.085C178.796 202.085 172.776 204.333 166.499 204.333ZM169.458 182.813V169.666C169.458 168.959 169.146 168.281 168.591 167.781C168.036 167.281 167.284 167 166.499 167C165.715 167 164.962 167.281 164.408 167.781C163.853 168.281 163.541 168.959 163.541 169.666V183C163.541 183 163.541 183.186 163.541 183.293C163.468 183.835 163.582 184.384 163.866 184.866L168.304 191.8C168.696 192.415 169.344 192.865 170.104 193.05C170.864 193.235 171.674 193.14 172.357 192.786C173.039 192.433 173.538 191.849 173.744 191.164C173.949 190.479 173.844 189.748 173.451 189.133L169.458 182.813Z" fill="#F85B00"></path></svg> 