<?xml version="1.0" encoding="UTF-8"?> <svg xmlns="http://www.w3.org/2000/svg" width="190" height="186" viewBox="0 0 190 186" fill="none"><path d="M64.0513 53.1002H118.951M64.0513 79.6502H118.951M64.0513 106.2H91.5013M50.3241 17.7002H132.676C142.783 17.7002 150.976 25.625 150.976 35.4005L150.974 141.601C150.974 151.376 142.78 159.3 132.674 159.3L50.3234 159.3C40.2165 159.3 32.0234 151.375 32.0234 141.6L32.0241 35.4001C32.0242 25.6247 40.2174 17.7002 50.3241 17.7002Z" stroke="white" stroke-width="7" stroke-linecap="round" stroke-linejoin="round"></path><path d="M145.979 122.154C148.691 117.581 155.309 117.581 158.021 122.154L178.641 156.93C181.408 161.596 178.045 167.5 172.62 167.5H131.38C125.955 167.5 122.592 161.596 125.359 156.93L145.979 122.154Z" fill="#222A35"></path><path d="M151.923 155.36C151.315 155.36 150.721 155.533 150.216 155.856C149.711 156.179 149.317 156.638 149.084 157.175C148.852 157.712 148.791 158.303 148.909 158.874C149.028 159.444 149.321 159.968 149.75 160.379C150.18 160.79 150.728 161.07 151.324 161.184C151.92 161.297 152.538 161.239 153.099 161.016C153.661 160.794 154.14 160.417 154.478 159.933C154.816 159.45 154.996 158.882 154.996 158.3C154.996 157.52 154.672 156.773 154.096 156.221C153.52 155.67 152.738 155.36 151.923 155.36ZM184.711 159.682L159.974 118.523C159.175 117.152 158.007 116.01 156.591 115.214C155.176 114.419 153.564 114 151.923 114C150.282 114 148.67 114.419 147.255 115.214C145.839 116.01 144.672 117.152 143.872 118.523L119.289 159.682C118.462 161.017 118.017 162.537 118.001 164.088C117.984 165.64 118.395 167.168 119.193 168.519C119.991 169.87 121.147 170.996 122.545 171.783C123.944 172.569 125.534 172.989 127.156 173H176.691C178.325 173.015 179.935 172.614 181.355 171.838C182.774 171.062 183.953 169.939 184.769 168.583C185.585 167.228 186.01 165.689 186 164.125C185.99 162.561 185.545 161.027 184.711 159.682ZM179.395 165.562C179.125 166.02 178.732 166.401 178.257 166.665C177.781 166.929 177.24 167.065 176.691 167.061H127.156C126.606 167.065 126.065 166.929 125.59 166.665C125.114 166.401 124.721 166.02 124.452 165.562C124.182 165.115 124.04 164.608 124.04 164.092C124.04 163.576 124.182 163.069 124.452 162.622L149.035 121.463C149.292 120.982 149.684 120.578 150.167 120.295C150.649 120.013 151.204 119.864 151.769 119.864C152.335 119.864 152.89 120.013 153.372 120.295C153.855 120.578 154.246 120.982 154.504 121.463L179.241 162.622C179.546 163.062 179.721 163.573 179.748 164.101C179.775 164.629 179.653 165.154 179.395 165.62V165.562ZM151.923 131.841C151.108 131.841 150.327 132.151 149.75 132.702C149.174 133.254 148.85 134.001 148.85 134.781V146.541C148.85 147.32 149.174 148.068 149.75 148.619C150.327 149.171 151.108 149.48 151.923 149.48C152.738 149.48 153.52 149.171 154.096 148.619C154.672 148.068 154.996 147.32 154.996 146.541V134.781C154.996 134.001 154.672 133.254 154.096 132.702C153.52 132.151 152.738 131.841 151.923 131.841Z" fill="#F85B00"></path></svg> 