<?xml version="1.0" encoding="UTF-8"?> <svg xmlns="http://www.w3.org/2000/svg" width="331" height="134" viewBox="0 0 331 134" fill="none"><path d="M24.9891 121.259C26.0069 115.031 23.8533 106.584 24.1181 99.2447C24.3529 92.7314 25.5649 86.3055 26.2955 79.8368C26.584 77.2826 27.021 74.7437 27.1664 72.1749C27.4372 67.3954 27.681 62.5638 27.1664 57.8086C26.9107 55.4442 26.3253 53.1244 25.6423 50.8651C24.7705 47.981 23.6647 45.1733 22.3761 42.4846C20.7332 39.0568 18.4728 36.026 16.7147 32.6679C15.6943 30.7187 14.6496 28.7674 13.884 26.6819C13.5689 25.8235 13.3462 24.9236 13.167 24.0191C13.007 23.2114 12.8785 22.3899 12.8497 21.564C12.7965 20.0349 12.7212 18.4494 13.1191 16.9832C13.3934 15.9729 13.9566 15.0703 14.5373 14.2312C15.2831 13.1533 16.1441 12.1393 17.1501 11.358C18.5291 10.287 20.1375 9.60167 21.7229 8.96359C23.062 8.42462 24.4458 7.96759 25.86 7.76641C30.3949 7.12126 35.0152 7.43444 39.5779 7.76641C44.232 8.10502 52.8089 8.05522 53.0783 7.76641C53.4207 7.39916 46.6757 5.19236 43.3831 4.24498C40.3443 3.37065 37.2628 2.56901 34.1344 2.25937C28.6941 1.72093 23.1384 1.5214 17.7491 2.4988C15.6598 2.87769 13.6311 3.68267 11.7066 4.65374C9.93032 5.55 8.18489 6.61068 6.69842 8.00584C5.24932 9.36592 3.85961 10.9268 2.99674 12.7946C2.15158 14.624 1.83825 16.735 1.69026 18.7806C1.54017 20.8552 1.79835 22.9559 2.12576 25.0058C2.36031 26.4743 2.68706 27.9422 3.21449 29.3157C4.39112 32.3801 6.14155 35.1443 7.78715 37.9355C10.0224 41.7268 12.6523 45.2206 14.9727 48.9496C16.0983 50.7582 17.4159 52.4606 18.239 54.4566C19.2013 56.7904 19.7718 59.3259 20.1272 61.8585C20.4954 64.4833 20.3974 67.166 20.3636 69.8215C20.3004 74.7649 19.9356 79.7004 19.5454 84.6256C19.2664 88.1466 18.5748 91.6288 18.4567 95.1608C18.3727 97.6751 18.4427 100.207 18.7289 102.703C19.1513 106.388 19.8126 110.064 20.8519 113.597C21.4619 115.671 22.074 117.826 23.2471 119.583C23.7036 120.267 24.8526 122.094 24.9891 121.259Z" fill="#F85B00" stroke="#F85B00"></path><path d="M27.2012 18.9322C27.2012 18.9322 32.1329 18.5315 34.5917 18.2488C36.4436 18.0361 38.3119 17.9051 40.1347 17.487C43.3301 16.7541 46.4571 15.66 49.5269 14.4395C52.5752 13.2274 55.4383 11.5051 58.457 10.2068C60.6868 9.2478 62.9309 8.31077 65.2318 7.58252C66.3988 7.21308 67.6209 6.92375 68.7861 6.70093C72.2659 6.03555 76.1289 5.99071 79.7048 6.73598C81.3014 7.06874 82.8737 7.72739 84.247 8.68302C85.3207 9.43029 86.3074 10.4032 87.0183 11.5613C87.805 12.8424 88.2774 14.3639 88.558 15.8786C88.9218 17.8425 89.042 19.9178 88.712 21.8891C88.4204 23.6309 87.566 25.2045 86.8643 26.7989C85.7635 29.3005 84.4551 31.6866 83.1692 34.0791C82.1836 35.9125 81.1825 37.7387 80.0897 39.4968C78.7458 41.6591 77.3604 43.799 75.8198 45.7963C74.5623 47.4267 73.4638 49.5738 71.7753 50.4173C71.461 50.5743 70.9786 50.0338 71.0055 49.6553C71.0835 48.5601 71.5511 47.5946 71.9293 46.6079C72.9949 43.8285 74.5254 41.2906 75.7016 38.5657C76.5296 36.6477 77.3515 34.7199 78.0112 32.7246C78.8775 30.1044 79.7872 27.4598 80.1668 24.7031C80.4596 22.5757 80.9104 20.2716 80.2437 18.2488C79.8405 17.026 78.8858 16.0588 77.9341 15.286C76.8988 14.4451 75.6515 13.8897 74.3929 13.5929C71.2592 12.8541 67.9639 13.0695 64.7791 13.4629C63.4121 13.6318 62.094 14.1272 60.7665 14.5241C58.7221 15.1354 56.7102 15.8719 54.6847 16.5558C51.778 17.5373 48.9029 18.637 45.9723 19.529C44.6274 19.9383 43.2823 20.3714 41.9053 20.6191C39.8212 20.994 37.7042 21.18 35.5926 21.2118C34.4435 21.229 33.2868 21.1836 32.1509 20.9929C31.0371 20.8058 29.8953 20.6095 28.8723 20.0907C28.2798 19.7902 27.2782 18.8415 27.2782 18.8415" fill="white"></path><path d="M27.2012 18.9322C27.2012 18.9322 32.1329 18.5315 34.5917 18.2488C36.4436 18.0361 38.3119 17.9051 40.1347 17.487C43.3301 16.7541 46.4571 15.66 49.5269 14.4395C52.5752 13.2274 55.4383 11.5051 58.457 10.2068C60.6868 9.2478 62.9309 8.31077 65.2318 7.58252C66.3988 7.21308 67.6209 6.92375 68.7861 6.70093C72.2659 6.03555 76.1289 5.99071 79.7049 6.73598C81.3014 7.06874 82.8737 7.72739 84.247 8.68302C85.3207 9.43029 86.3074 10.4032 87.0183 11.5613C87.805 12.8424 88.2774 14.3639 88.558 15.8786C88.9218 17.8425 89.042 19.9178 88.712 21.8891C88.4204 23.6309 87.566 25.2045 86.8643 26.7989C85.7635 29.3005 84.4551 31.6866 83.1692 34.0791C82.1836 35.9125 81.1825 37.7387 80.0897 39.4968C78.7458 41.6591 77.3604 43.799 75.8198 45.7963C74.5623 47.4267 73.4638 49.5738 71.7753 50.4173C71.461 50.5743 70.9786 50.0338 71.0055 49.6553C71.0835 48.5601 71.5511 47.5946 71.9293 46.6079C72.9949 43.8285 74.5254 41.2906 75.7016 38.5657C76.5296 36.6477 77.3515 34.7199 78.0112 32.7246C78.8775 30.1044 79.7872 27.4598 80.1668 24.7031C80.4596 22.5757 80.9104 20.2716 80.2437 18.2488C79.8405 17.026 78.8858 16.0588 77.9341 15.286C76.8988 14.4451 75.6515 13.8897 74.3929 13.5929C71.2592 12.8541 67.9639 13.0695 64.7791 13.4629C63.4121 13.6318 62.094 14.1272 60.7665 14.5241C58.7221 15.1354 56.7102 15.8719 54.6847 16.5558C51.778 17.5373 48.9029 18.637 45.9723 19.529C44.6274 19.9383 43.2823 20.3714 41.9053 20.6191C39.8212 20.994 37.7042 21.18 35.5926 21.2118C34.4435 21.229 33.2868 21.1836 32.1509 20.9929C31.0371 20.8058 29.8953 20.6095 28.8723 20.0907C28.2798 19.7902 27.2782 18.8415 27.2782 18.8415" stroke="white"></path><path d="M56.1701 86.8615V114.08H63.4776C67.2171 114.08 69.8244 112.052 71.2998 107.997C72.106 105.771 72.509 103.121 72.509 100.046C72.509 95.8022 71.9002 92.5485 70.6822 90.285C69.4814 88.0026 67.0799 86.8615 63.4776 86.8615H56.1701ZM64.8156 79.6182C67.1657 79.6559 69.1212 79.9576 70.6822 80.5236C73.3411 81.4855 75.4939 83.2493 77.1407 85.8145C78.4614 87.8895 79.362 90.134 79.8424 92.5485C80.3226 94.9629 80.5628 97.264 80.5628 99.4522C80.5628 104.998 79.5507 109.695 77.5265 113.542C74.782 118.73 70.5449 121.323 64.8156 121.323H48.4766V79.6182H64.8156ZM98.5486 115.636C100.693 115.636 102.339 114.797 103.489 113.118C104.638 111.439 105.213 109.053 105.213 105.96C105.213 102.866 104.638 100.49 103.489 98.8297C102.339 97.1509 100.693 96.3116 98.5486 96.3116C96.4044 96.3116 94.749 97.1509 93.5825 98.8297C92.4332 100.49 91.8585 102.866 91.8585 105.96C91.8585 109.053 92.4332 111.439 93.5825 113.118C94.749 114.797 96.4044 115.636 98.5486 115.636ZM112.906 105.96C112.906 110.487 111.723 114.363 109.355 117.589C106.988 120.795 103.395 122.399 98.5743 122.399C93.7541 122.399 90.1603 120.795 87.7931 117.589C85.4259 114.363 84.2422 110.487 84.2422 105.96C84.2422 101.508 85.4259 97.6508 87.7931 94.3876C90.1603 91.1243 93.7541 89.4928 98.5743 89.4928C103.395 89.4928 106.988 91.1243 109.355 94.3876C111.723 97.6508 112.906 101.508 112.906 105.96ZM134.932 101.546C134.795 100.395 134.443 99.3579 133.877 98.4336C133.053 97.1887 131.775 96.5661 130.043 96.5661C127.573 96.5661 125.883 97.9148 124.974 100.612C124.494 102.046 124.253 103.951 124.253 106.328C124.253 108.591 124.494 110.411 124.974 111.788C125.849 114.354 127.496 115.636 129.914 115.636C131.63 115.636 132.848 115.127 133.568 114.108C134.289 113.09 134.726 111.77 134.88 110.147H142.368C142.196 112.599 141.39 114.919 139.949 117.108C137.651 120.635 134.246 122.399 129.734 122.399C125.223 122.399 121.903 120.927 119.776 117.985C117.649 115.042 116.586 111.222 116.586 106.526C116.586 101.225 117.761 97.1038 120.111 94.1612C122.461 91.2186 125.703 89.7474 129.837 89.7474C133.354 89.7474 136.227 90.6151 138.457 92.3504C140.704 94.0857 142.033 97.1509 142.445 101.546H134.932ZM173.605 92.6333C173.004 89.785 171.539 87.7951 169.205 86.6634C167.901 86.0408 166.452 85.7297 164.856 85.7297C161.803 85.7297 159.29 87.0029 157.317 89.5493C155.362 92.077 154.384 95.8871 154.384 100.98C154.384 106.111 155.448 109.742 157.575 111.873C159.702 114.005 162.121 115.07 164.831 115.07C167.489 115.07 169.668 114.231 171.366 112.552C173.065 110.855 174.111 108.638 174.506 105.903H165.732V98.9428H181.529V121.323H176.281L175.483 116.117C173.956 118.098 172.584 119.494 171.366 120.305C169.274 121.72 166.7 122.427 163.647 122.427C158.621 122.427 154.504 120.512 151.297 116.683C147.952 112.835 146.279 107.572 146.279 100.895C146.279 94.1424 147.969 88.7288 151.348 84.6545C154.727 80.5801 159.196 78.543 164.754 78.543C169.574 78.543 173.442 79.8917 176.359 82.589C179.292 85.2674 180.973 88.6156 181.401 92.6333H173.605ZM203.993 106.328C203.53 106.648 203.058 106.912 202.578 107.12C202.114 107.308 201.472 107.488 200.648 107.657L199.002 107.997C197.457 108.299 196.35 108.667 195.682 109.1C194.55 109.836 193.984 110.977 193.984 112.524C193.984 113.901 194.327 114.901 195.013 115.523C195.716 116.127 196.566 116.429 197.561 116.429C199.138 116.429 200.588 115.919 201.908 114.901C203.247 113.882 203.942 112.024 203.993 109.327V106.328ZM199.542 102.564C200.897 102.376 201.865 102.14 202.45 101.857C203.496 101.367 204.019 100.603 204.019 99.5654C204.019 98.3016 203.616 97.4339 202.809 96.9624C202.02 96.4718 200.854 96.2266 199.31 96.2266C197.577 96.2266 196.35 96.6982 195.631 97.6414C195.115 98.3393 194.773 99.2824 194.602 100.471H187.525C187.68 97.7734 188.365 95.557 189.584 93.8217C191.522 91.1055 194.85 89.7474 199.568 89.7474C202.638 89.7474 205.365 90.417 207.749 91.7563C210.134 93.0956 211.326 95.6231 211.326 99.339V113.486C211.326 114.467 211.344 115.655 211.377 117.051C211.43 118.107 211.575 118.824 211.815 119.201C212.056 119.579 212.416 119.89 212.895 120.135V121.323H204.92C204.696 120.701 204.541 120.116 204.456 119.569C204.37 119.022 204.301 118.4 204.25 117.702C203.239 118.909 202.071 119.937 200.751 120.786C199.173 121.785 197.389 122.285 195.399 122.285C192.861 122.285 190.76 121.493 189.095 119.909C187.448 118.305 186.625 116.042 186.625 113.118C186.625 109.327 187.954 106.582 190.613 104.885C192.07 103.96 194.216 103.3 197.045 102.904L199.542 102.564ZM225.401 86.8048H217.964V79.3634H225.401V86.8048ZM217.964 90.4831H225.401V121.323H217.964V90.4831ZM242.872 89.7474C244.571 89.7474 246.079 90.1624 247.4 90.9923C248.721 91.8034 249.795 92.9351 250.618 94.3876V79.6747H258.053V121.323H250.926V117.051C249.88 118.881 248.688 120.21 247.349 121.041C246.012 121.87 244.347 122.285 242.358 122.285C239.081 122.285 236.319 120.833 234.073 117.928C231.842 115.004 230.727 111.26 230.727 106.695C230.727 101.433 231.825 97.2925 234.02 94.2744C236.233 91.2563 239.184 89.7474 242.872 89.7474ZM244.467 115.495C246.544 115.495 248.121 114.646 249.202 112.948C250.282 111.251 250.822 109.053 250.822 106.356C250.822 102.583 249.956 99.8861 248.224 98.2638C247.161 97.283 245.926 96.7925 244.518 96.7925C242.374 96.7925 240.797 97.6885 239.784 99.4805C238.789 101.254 238.292 103.46 238.292 106.101C238.292 108.95 238.797 111.232 239.81 112.948C240.839 114.646 242.392 115.495 244.467 115.495Z" fill="white"></path></svg> 