<?xml version="1.0" encoding="UTF-8"?> <svg xmlns="http://www.w3.org/2000/svg" width="240" height="86" viewBox="0 0 240 86" fill="none"><path d="M18.1195 77.8232C18.8575 73.8262 17.296 68.4048 17.488 63.6945C17.6582 59.5143 18.537 55.3902 19.0667 51.2386C19.2759 49.5994 19.5928 47.9699 19.6982 46.3213C19.8945 43.2539 20.0714 40.153 19.6982 37.1012C19.5128 35.5837 19.0883 34.0949 18.5931 32.6449C17.961 30.7939 17.1592 28.9919 16.2249 27.2664C15.0336 25.0664 13.3947 23.1213 12.12 20.9661C11.3801 19.7151 10.6226 18.4628 10.0675 17.1243C9.83897 16.5734 9.67752 15.9958 9.54758 15.4153C9.43156 14.897 9.3384 14.3697 9.31753 13.8397C9.27891 12.8583 9.22432 11.8408 9.51288 10.8998C9.71172 10.2514 10.1201 9.67208 10.5411 9.13357C11.0819 8.44179 11.7062 7.79103 12.4357 7.28955C13.4355 6.60225 14.6017 6.16238 15.7512 5.75287C16.7222 5.40697 17.7256 5.11365 18.751 4.98453C22.0391 4.57048 25.3892 4.77147 28.6975 4.98453C32.0721 5.20184 38.2909 5.16988 38.4863 4.98453C38.7345 4.74883 33.8439 3.33253 31.4566 2.72451C29.2532 2.16337 27.0188 1.64888 24.7505 1.45016C20.8059 1.1046 16.7776 0.976536 12.8699 1.60382C11.355 1.84699 9.88406 2.36362 8.48866 2.98684C7.20074 3.56206 5.93517 4.24279 4.85737 5.13819C3.80666 6.01108 2.79902 7.01283 2.17337 8.21157C1.56057 9.38569 1.33338 10.7405 1.22608 12.0533C1.11725 13.3848 1.30445 14.733 1.54185 16.0486C1.71191 16.9911 1.94883 17.9332 2.33126 18.8147C3.1844 20.7814 4.4536 22.5554 5.64678 24.3468C7.26753 26.78 9.17435 29.0223 10.8569 31.4155C11.673 32.5763 12.6284 33.6688 13.2251 34.9499C13.9229 36.4477 14.3365 38.0749 14.5942 39.7003C14.8612 41.3849 14.7902 43.1066 14.7657 44.811C14.7198 47.9835 14.4554 51.1511 14.1724 54.3121C13.9701 56.5718 13.4686 58.8066 13.383 61.0734C13.3221 62.6871 13.3728 64.3119 13.5804 65.914C13.8866 68.2788 14.3662 70.638 15.1197 72.9059C15.562 74.237 16.0058 75.6198 16.8564 76.7476C17.1874 77.1866 18.0205 78.3592 18.1195 77.8232Z" fill="#F85B00" stroke="#F85B00"></path><path d="M19.7227 12.1499C19.7227 12.1499 23.2985 11.8927 25.0813 11.7113C26.4241 11.5747 27.7788 11.4907 29.1004 11.2223C31.4173 10.7519 33.6847 10.0498 35.9105 9.26646C38.1207 8.48859 40.1967 7.38324 42.3855 6.54997C44.0023 5.9345 45.6294 5.33312 47.2977 4.86574C48.1439 4.62863 49.03 4.44294 49.8749 4.29994C52.398 3.8729 55.199 3.84413 57.7918 4.32244C58.9494 4.536 60.0895 4.95871 61.0852 5.57203C61.8637 6.05162 62.5791 6.67601 63.0946 7.41925C63.665 8.24148 64.0076 9.21794 64.211 10.1901C64.4748 11.4505 64.5619 12.7824 64.3227 14.0476C64.1112 15.1654 63.4917 16.1754 62.983 17.1986C62.1847 18.8042 61.2361 20.3355 60.3037 21.871C59.589 23.0477 58.8632 24.2197 58.0708 25.3481C57.0964 26.7358 56.0918 28.1091 54.9748 29.391C54.0631 30.4374 53.2665 31.8154 52.0423 32.3567C51.8144 32.4575 51.4646 32.1106 51.4841 31.8677C51.5407 31.1648 51.8797 30.5451 52.1539 29.9119C52.9266 28.1281 54.0363 26.4993 54.8891 24.7505C55.4895 23.5195 56.0854 22.2823 56.5637 21.0017C57.1919 19.32 57.8515 17.6228 58.1267 15.8535C58.339 14.4882 58.6659 13.0095 58.1825 11.7113C57.8902 10.9265 57.1979 10.3057 56.5079 9.80976C55.7572 9.27009 54.8528 8.91361 53.9402 8.72316C51.6681 8.24901 49.2787 8.38726 46.9695 8.63974C45.9783 8.74811 45.0226 9.06607 44.0601 9.32079C42.5777 9.7131 41.119 10.1858 39.6503 10.6247C37.5427 11.2546 35.4581 11.9604 33.3332 12.5329C32.358 12.7956 31.3827 13.0735 30.3843 13.2325C28.8731 13.4731 27.3382 13.5924 25.8071 13.6129C24.9739 13.6239 24.1352 13.5948 23.3116 13.4724C22.504 13.3523 21.6761 13.2264 20.9344 12.8934C20.5047 12.7005 19.7785 12.0916 19.7785 12.0916" fill="#222A35"></path><path d="M19.7227 12.1499C19.7227 12.1499 23.2985 11.8927 25.0813 11.7113C26.4241 11.5747 27.7788 11.4907 29.1004 11.2223C31.4173 10.7519 33.6847 10.0498 35.9105 9.26646C38.1207 8.48859 40.1967 7.38324 42.3855 6.54997C44.0023 5.9345 45.6294 5.33312 47.2977 4.86574C48.1439 4.62863 49.03 4.44294 49.8749 4.29994C52.398 3.8729 55.199 3.84413 57.7918 4.32244C58.9494 4.536 60.0895 4.95871 61.0852 5.57203C61.8637 6.05162 62.5791 6.67601 63.0946 7.41925C63.665 8.24148 64.0076 9.21794 64.211 10.1901C64.4748 11.4505 64.5619 12.7824 64.3227 14.0476C64.1112 15.1654 63.4917 16.1754 62.983 17.1986C62.1847 18.8042 61.2361 20.3355 60.3037 21.871C59.589 23.0477 58.8632 24.2197 58.0708 25.3481C57.0964 26.7358 56.0918 28.1091 54.9748 29.391C54.0631 30.4374 53.2665 31.8154 52.0423 32.3567C51.8144 32.4575 51.4646 32.1106 51.4841 31.8677C51.5407 31.1648 51.8797 30.5451 52.1539 29.9119C52.9266 28.1281 54.0363 26.4993 54.8891 24.7505C55.4895 23.5195 56.0854 22.2823 56.5637 21.0017C57.1919 19.32 57.8515 17.6228 58.1267 15.8536C58.339 14.4882 58.6659 13.0095 58.1825 11.7113C57.8902 10.9265 57.1979 10.3057 56.5078 9.80976C55.7572 9.27009 54.8528 8.91361 53.9402 8.72316C51.6681 8.24901 49.2787 8.38726 46.9695 8.63974C45.9783 8.74811 45.0226 9.06607 44.0601 9.32079C42.5777 9.7131 41.119 10.1858 39.6503 10.6247C37.5427 11.2546 35.4581 11.9604 33.3332 12.5329C32.358 12.7956 31.3827 13.0735 30.3843 13.2325C28.8731 13.4731 27.3382 13.5924 25.8071 13.6129C24.9739 13.6239 24.1352 13.5948 23.3116 13.4724C22.504 13.3523 21.6761 13.2264 20.9344 12.8934C20.5047 12.7005 19.7785 12.0916 19.7785 12.0916" stroke="#222A35"></path><path d="M40.7278 55.7479V73.2166H46.0263C48.7377 73.2166 50.6282 71.9152 51.698 69.3124C52.2825 67.884 52.5747 66.1831 52.5747 64.2099C52.5747 61.486 52.1333 59.3978 51.2502 57.9451C50.3795 56.4803 48.6383 55.7479 46.0263 55.7479H40.7278ZM46.9965 51.0993C48.7005 51.1234 50.1184 51.3171 51.2502 51.6804C53.1781 52.2977 54.739 53.4296 55.9331 55.076C56.8907 56.4077 57.5437 57.8482 57.892 59.3978C58.2402 60.9473 58.4144 62.4242 58.4144 63.8286C58.4144 67.3877 57.6805 70.402 56.2128 72.8716C54.2228 76.2007 51.1506 77.8653 46.9965 77.8653H35.1494V51.0993H46.9965ZM71.4554 74.2154C73.0101 74.2154 74.2041 73.6766 75.0375 72.5993C75.8708 71.5218 76.2874 69.9904 76.2874 68.005C76.2874 66.0197 75.8708 64.4943 75.0375 63.429C74.2041 62.3516 73.0101 61.8129 71.4554 61.8129C69.9007 61.8129 68.7005 62.3516 67.8546 63.429C67.0213 64.4943 66.6046 66.0197 66.6046 68.005C66.6046 69.9904 67.0213 71.5218 67.8546 72.5993C68.7005 73.6766 69.9007 74.2154 71.4554 74.2154ZM81.8658 68.005C81.8658 70.9104 81.0077 73.3981 79.2911 75.4683C77.5748 77.5263 74.9691 78.5554 71.4741 78.5554C67.979 78.5554 65.3733 77.5263 63.6569 75.4683C61.9405 73.3981 61.0822 70.9104 61.0822 68.005C61.0822 65.1481 61.9405 62.6724 63.6569 60.5781C65.3733 58.4838 67.979 57.4367 71.4741 57.4367C74.9691 57.4367 77.5748 58.4838 79.2911 60.5781C81.0077 62.6724 81.8658 65.1481 81.8658 68.005ZM97.836 65.1722C97.7365 64.4338 97.4815 63.768 97.0711 63.1748C96.4741 62.3758 95.5474 61.9763 94.2913 61.9763C92.5002 61.9763 91.275 62.8419 90.6158 64.573C90.2676 65.4931 90.0934 66.7157 90.0934 68.2412C90.0934 69.6939 90.2676 70.8621 90.6158 71.7458C91.2502 73.3921 92.4442 74.2154 94.1979 74.2154C95.4417 74.2154 96.3248 73.8885 96.8472 73.2347C97.3696 72.581 97.6867 71.7337 97.7986 70.6925H103.228C103.103 72.2663 102.519 73.7553 101.474 75.1596C99.8073 77.4234 97.3384 78.5554 94.0673 78.5554C90.7962 78.5554 88.3894 77.611 86.8472 75.7225C85.3049 73.8339 84.5338 71.3826 84.5338 68.3682C84.5338 64.9664 85.3857 62.3213 87.0897 60.4328C88.7937 58.5443 91.1444 57.6001 94.142 57.6001C96.6917 57.6001 98.7751 58.157 100.392 59.2707C102.021 60.3844 102.985 62.3516 103.284 65.1722H97.836ZM125.877 59.4522C125.441 57.6242 124.379 56.3471 122.687 55.6208C121.741 55.2212 120.69 55.0216 119.533 55.0216C117.32 55.0216 115.498 55.8387 114.067 57.4729C112.649 59.0952 111.94 61.5405 111.94 64.8091C111.94 68.1019 112.712 70.4323 114.254 71.8002C115.796 73.1681 117.55 73.8522 119.515 73.8522C121.443 73.8522 123.022 73.3134 124.253 72.236C125.486 71.1466 126.244 69.7241 126.53 67.9688H120.169V63.5016H131.623V77.8653H127.817L127.238 74.524C126.131 75.7952 125.137 76.691 124.253 77.2115C122.737 78.1195 120.871 78.5735 118.657 78.5735C115.013 78.5735 112.028 77.3447 109.702 74.8872C107.276 72.4176 106.064 69.04 106.064 64.7547C106.064 60.4207 107.289 56.9463 109.739 54.3315C112.189 51.7166 115.429 50.4092 119.459 50.4092C122.954 50.4092 125.759 51.2748 127.874 53.0059C130 54.7249 131.219 56.8737 131.53 59.4522H125.877ZM147.911 68.2412C147.575 68.4469 147.232 68.6164 146.885 68.7495C146.548 68.8706 146.083 68.9856 145.486 69.0945L144.292 69.3124C143.172 69.5062 142.369 69.7422 141.884 70.0207C141.064 70.4927 140.653 71.2252 140.653 72.2178C140.653 73.1016 140.902 73.7432 141.4 74.1427C141.909 74.5301 142.526 74.7238 143.247 74.7238C144.391 74.7238 145.441 74.3969 146.399 73.7432C147.37 73.0895 147.874 71.8971 147.911 70.1659V68.2412ZM144.683 65.826C145.666 65.705 146.368 65.5535 146.792 65.372C147.55 65.0573 147.93 64.567 147.93 63.9012C147.93 63.0901 147.637 62.5332 147.052 62.2306C146.48 61.9157 145.635 61.7584 144.515 61.7584C143.259 61.7584 142.369 62.061 141.847 62.6664C141.474 63.1143 141.225 63.7195 141.101 64.4823H135.97C136.083 62.7511 136.579 61.3286 137.463 60.2149C138.868 58.4717 141.281 57.6001 144.702 57.6001C146.928 57.6001 148.905 58.0298 150.634 58.8894C152.363 59.7489 153.228 61.371 153.228 63.7559V72.8353C153.228 73.4647 153.241 74.2275 153.265 75.1233C153.303 75.8013 153.408 76.2612 153.582 76.5033C153.757 76.7455 154.018 76.9452 154.366 77.1027V77.8653H148.583C148.42 77.4657 148.308 77.0904 148.246 76.7394C148.184 76.3884 148.134 75.9888 148.097 75.5409C147.364 76.3157 146.517 76.9755 145.56 77.5202C144.416 78.1618 143.123 78.4826 141.679 78.4826C139.839 78.4826 138.315 77.9743 137.108 76.9574C135.914 75.9283 135.317 74.4756 135.317 72.5993C135.317 70.1659 136.281 68.4046 138.209 67.315C139.266 66.7219 140.822 66.2981 142.873 66.0439L144.683 65.826ZM163.433 55.7115H158.041V50.9358H163.433V55.7115ZM158.041 58.0722H163.433V77.8653H158.041V58.0722ZM176.1 57.6001C177.333 57.6001 178.426 57.8664 179.384 58.399C180.342 58.9196 181.12 59.6459 181.717 60.5781V51.1355H187.108V77.8653H181.94V75.1233C181.182 76.2975 180.318 77.151 179.347 77.6837C178.377 78.2164 177.17 78.4826 175.728 78.4826C173.352 78.4826 171.349 77.5505 169.721 75.6862C168.103 73.8098 167.294 71.4068 167.294 68.4772C167.294 65.0996 168.091 62.4424 169.683 60.5055C171.287 58.5685 173.427 57.6001 176.1 57.6001ZM177.257 74.1245C178.763 74.1245 179.907 73.5798 180.69 72.4903C181.474 71.4007 181.865 69.9904 181.865 68.2593C181.865 65.838 181.237 64.107 179.981 63.0658C179.211 62.4364 178.315 62.1216 177.294 62.1216C175.74 62.1216 174.596 62.6966 173.862 63.8467C173.14 64.9847 172.78 66.401 172.78 68.0959C172.78 69.9239 173.146 71.3886 173.881 72.4903C174.627 73.5798 175.753 74.1245 177.257 74.1245Z" fill="#222A35"></path></svg> 