<?xml version="1.0" encoding="UTF-8"?> <svg xmlns="http://www.w3.org/2000/svg" width="24" height="24" viewBox="0 0 24 24" fill="none"><mask id="path-1-inside-1_26_382" fill="white"><path d="M13.0761 5.86545C13.0011 5.8292 12.9174 5.81495 12.8347 5.82435C12.752 5.83374 12.6737 5.8664 12.6088 5.91854L8.31286 9.35446H6.26176C6.02779 9.35478 5.80348 9.44782 5.63796 9.61319C5.47244 9.77855 5.3792 10.0028 5.37866 10.2367V13.7683C5.37877 14.0025 5.47183 14.2271 5.63741 14.3928C5.80299 14.5584 6.02754 14.6516 6.26176 14.6518H8.31367L12.6096 18.0877C12.6748 18.1397 12.7533 18.1722 12.8361 18.1814C12.9189 18.1907 13.0027 18.1763 13.0777 18.14C13.1526 18.1041 13.2158 18.0478 13.26 17.9775C13.3042 17.9072 13.3277 17.8259 13.3277 17.7429V6.26302C13.3274 6.1798 13.3036 6.09837 13.2591 6.02805C13.2145 5.95774 13.1511 5.90138 13.0761 5.86545Z"></path></mask><path d="M12.6088 5.91854L13.2334 6.69948L13.2351 6.69814L12.6088 5.91854ZM8.31286 9.35446V10.3545H8.66357L8.93746 10.1354L8.31286 9.35446ZM6.26176 9.35446V8.35446L6.26039 8.35446L6.26176 9.35446ZM5.37866 10.2367L4.37866 10.2345V10.2367H5.37866ZM5.37866 13.7683H4.37866L4.37866 13.7688L5.37866 13.7683ZM6.26176 14.6518L6.26084 15.6518H6.26176V14.6518ZM8.31367 14.6518L8.93827 13.8709L8.66439 13.6518H8.31367V14.6518ZM12.6096 18.0877L11.985 18.8687L11.9863 18.8698L12.6096 18.0877ZM13.0777 18.14L12.6453 17.2383L12.6423 17.2398L13.0777 18.14ZM13.3277 17.7429L14.3277 17.743V17.7429H13.3277ZM13.3277 6.26302H14.3278L14.3277 6.2586L13.3277 6.26302ZM13.5115 4.96522C13.2663 4.84662 12.9925 4.79999 12.7218 4.83074L12.9476 6.81795C12.8424 6.82991 12.736 6.81178 12.6406 6.76567L13.5115 4.96522ZM12.7218 4.83074C12.4512 4.86149 12.1948 4.96836 11.9825 5.13894L13.2351 6.69814C13.1525 6.76445 13.0528 6.806 12.9476 6.81795L12.7218 4.83074ZM11.9842 5.1376L7.68825 8.57352L8.93746 10.1354L13.2334 6.69948L11.9842 5.1376ZM8.31286 8.35446H6.26176V10.3545H8.31286V8.35446ZM6.26039 8.35446C5.76183 8.35515 5.28387 8.55339 4.93117 8.90575L6.34474 10.3206C6.32308 10.3422 6.29374 10.3544 6.26313 10.3545L6.26039 8.35446ZM4.93117 8.90575C4.57848 9.25812 4.37981 9.7359 4.37866 10.2345L6.37866 10.239C6.37859 10.2696 6.36639 10.299 6.34474 10.3206L4.93117 8.90575ZM4.37866 10.2367V13.7683H6.37866V10.2367H4.37866ZM4.37866 13.7688C4.37889 14.268 4.57724 14.7467 4.93014 15.0997L6.34468 13.6858C6.36643 13.7076 6.37865 13.7371 6.37866 13.7679L4.37866 13.7688ZM4.93014 15.0997C5.28304 15.4528 5.76165 15.6514 6.26084 15.6518L6.26267 13.6518C6.29344 13.6518 6.32293 13.6641 6.34468 13.6858L4.93014 15.0997ZM6.26176 15.6518H8.31367V13.6518H6.26176V15.6518ZM7.68906 15.4328L11.985 18.8687L13.2342 17.3068L8.93827 13.8709L7.68906 15.4328ZM11.9863 18.8698C12.1989 19.0392 12.455 19.1451 12.7251 19.1752L12.9471 17.1876C13.0516 17.1993 13.1506 17.2402 13.2329 17.3057L11.9863 18.8698ZM12.7251 19.1752C12.9952 19.2054 13.2684 19.1586 13.5131 19.0403L12.6423 17.2398C12.7369 17.194 12.8426 17.1759 12.9471 17.1876L12.7251 19.1752ZM13.5101 19.0417C13.7549 18.9243 13.9616 18.7401 14.1063 18.5103L12.4138 17.4447C12.4699 17.3555 12.5502 17.2839 12.6453 17.2383L13.5101 19.0417ZM14.1063 18.5103C14.2509 18.2805 14.3277 18.0145 14.3277 17.743L12.3277 17.7427C12.3278 17.6373 12.3576 17.534 12.4138 17.4447L14.1063 18.5103ZM14.3277 17.7429V6.26302H12.3277V17.7429H14.3277ZM14.3277 6.2586C14.3265 5.9875 14.249 5.72224 14.104 5.49319L12.4141 6.56292C12.3581 6.4745 12.3282 6.3721 12.3278 6.26745L14.3277 6.2586ZM14.104 5.49319C13.959 5.26413 13.7524 5.08056 13.5079 4.96349L12.6442 6.7674C12.5498 6.72221 12.4701 6.65134 12.4141 6.56292L14.104 5.49319Z" fill="#fff" mask="url(#path-1-inside-1_26_382)"></path><path d="M15.5612 8.88064C15.4778 8.79831 15.3652 8.75246 15.248 8.75318C15.1308 8.7539 15.0188 8.80114 14.9364 8.88449C14.8541 8.96785 14.8082 9.0805 14.809 9.19766C14.8097 9.31482 14.8569 9.42689 14.9403 9.50922C15.2683 9.83638 15.5286 10.225 15.7062 10.653C15.8837 11.0809 15.9752 11.5396 15.9752 12.0029C15.9752 12.4662 15.8837 12.9249 15.7062 13.3528C15.5286 13.7807 15.2683 14.1694 14.9403 14.4966C14.8991 14.5373 14.8664 14.5858 14.8439 14.6392C14.8215 14.6926 14.8098 14.7499 14.8095 14.8079C14.8093 14.8658 14.8204 14.9232 14.8423 14.9769C14.8642 15.0305 14.8965 15.0793 14.9372 15.1205C14.978 15.1616 15.0265 15.1944 15.0799 15.2168C15.1333 15.2392 15.1906 15.2509 15.2486 15.2512C15.3065 15.2515 15.3639 15.2404 15.4176 15.2184C15.4712 15.1965 15.52 15.1643 15.5612 15.1235C15.972 14.7143 16.298 14.228 16.5204 13.6925C16.7429 13.1569 16.8574 12.5828 16.8574 12.0029C16.8574 11.423 16.7429 10.8488 16.5204 10.3133C16.298 9.77781 15.972 9.29149 15.5612 8.88226V8.88064Z" fill="#fff"></path><path d="M16.8066 7.63633C16.7654 7.59546 16.7166 7.56309 16.6629 7.54108C16.6093 7.51907 16.5518 7.50785 16.4938 7.50806C16.4358 7.50827 16.3784 7.5199 16.3248 7.54229C16.2713 7.56468 16.2227 7.59739 16.1819 7.63856C16.141 7.67973 16.1086 7.72854 16.0866 7.78222C16.0646 7.83589 16.0534 7.89338 16.0536 7.95139C16.0538 8.0094 16.0654 8.0668 16.0878 8.12032C16.1102 8.17384 16.1429 8.22242 16.1841 8.26329C16.6774 8.75302 17.069 9.33553 17.3361 9.97725C17.6033 10.619 17.7409 11.3072 17.7409 12.0024C17.7409 12.6975 17.6033 13.3858 17.3361 14.0275C17.069 14.6692 16.6774 15.2517 16.1841 15.7414C16.1429 15.7823 16.1102 15.8309 16.0878 15.8844C16.0654 15.9379 16.0538 15.9953 16.0536 16.0533C16.0534 16.1114 16.0646 16.1688 16.0866 16.2225C16.1086 16.2762 16.141 16.325 16.1819 16.3662C16.2227 16.4073 16.2713 16.4401 16.3248 16.4624C16.3784 16.4848 16.4358 16.4965 16.4938 16.4967C16.5518 16.4969 16.6093 16.4857 16.6629 16.4636C16.7166 16.4416 16.7654 16.4093 16.8066 16.3684C17.3824 15.7964 17.8394 15.1162 18.1513 14.3669C18.4632 13.6176 18.6237 12.814 18.6237 12.0024C18.6237 11.1907 18.4632 10.3871 18.1513 9.63782C17.8394 8.88851 17.3824 8.20829 16.8066 7.63633Z" fill="#fff"></path><path d="M2.53714 14.5371C2.03534 12.6656 2.09979 10.6872 2.72236 8.85228C3.34492 7.01734 4.49762 5.40821 6.0347 4.22839C7.57178 3.04857 9.4242 2.35103 11.3577 2.224C13.2912 2.09697 15.219 2.54615 16.8972 3.51472C18.5754 4.4833 19.9288 5.92778 20.7861 7.6655C21.6433 9.40322 21.9661 11.3561 21.7135 13.2773C21.4608 15.1984 20.6442 17.0015 19.3668 18.4585C18.0895 19.9155 16.4087 20.9611 14.5371 21.4629" stroke="#fff" stroke-width="0.6" stroke-linecap="round"></path><path d="M1.20724 14.2753L3.72916 13.5963L2.95254 16.0324L1.20724 14.2753Z" fill="#fff"></path><path d="M2.86583 15.6508L3.42973 13.884L1.59946 14.3768L2.86583 15.6508ZM3.0435 16.4199L0.818698 14.1817L4.03419 13.316L3.0435 16.4199Z" fill="#fff"></path></svg> 