<?xml version="1.0" encoding="UTF-8"?> <svg xmlns="http://www.w3.org/2000/svg" width="25" height="24" viewBox="0 0 25 24" fill="none"><path d="M13.4415 12.7052C13.1656 12.9067 12.2076 13.5505 11.2322 13.5505C10.2585 13.5505 9.31887 12.9092 9.04465 12.7053C8.28624 12.718 7.55064 12.9041 6.85682 13.2589C6.16183 13.6142 5.53762 14.123 5.0015 14.771C4.46539 15.4191 4.04451 16.1737 3.75056 17.0138C3.48402 17.7756 3.33258 18.5791 3.29912 19.407H19.1884C19.1549 18.5791 19.0035 17.7756 18.737 17.0138C18.443 16.1737 18.0221 15.4191 17.486 14.771C16.9499 14.123 16.3257 13.6142 15.6307 13.2589C14.9365 12.9039 14.2004 12.7178 13.4415 12.7052ZM9.12859 12.3516C9.12859 12.3516 10.1746 13.1975 11.2322 13.1975C12.2898 13.1975 13.3589 12.3516 13.3589 12.3516C16.7437 12.3516 19.4875 15.6684 19.4875 19.76H3C3 15.6684 5.74386 12.3516 9.12859 12.3516Z" fill="#F85B00" stroke="#F85B00" stroke-width="0.4"></path><path d="M11.2438 10.8645C13.4533 10.8645 15.2444 9.12805 15.2444 6.98607C15.2444 4.84409 13.4533 3.10767 11.2438 3.10767C9.03426 3.10767 7.2431 4.84409 7.2431 6.98607C7.2431 9.12805 9.03426 10.8645 11.2438 10.8645Z" stroke="#F85B00" stroke-width="0.8"></path><path d="M21.4617 12.2271C21.2267 12.5376 20.8738 12.7451 20.4807 12.8042C20.0875 12.8632 19.6861 12.7689 19.3648 12.542L18.5106 11.8962C18.4248 11.997 18.3016 12.0614 18.1674 12.0756C18.0332 12.0899 17.8986 12.0528 17.7922 11.9724C17.6858 11.892 17.6162 11.7746 17.5981 11.6452C17.5799 11.5158 17.6148 11.3847 17.6952 11.2798L16.8207 10.6188C16.5153 10.372 16.3237 10.0181 16.288 9.63486C16.2523 9.25158 16.3754 8.87027 16.6302 8.57471C16.6937 8.4918 16.783 8.43075 16.885 8.40052C16.987 8.3703 17.0964 8.37248 17.197 8.40676C17.3189 8.44119 17.4487 8.44015 17.57 8.40379C17.6914 8.36742 17.799 8.29734 17.8795 8.20225L18.1934 7.81398C18.52 7.41316 18.9771 7.13088 19.4905 7.01298C20.0039 6.89508 20.5434 6.94848 21.0215 7.16452L21.2325 6.90355C21.3183 6.80276 21.4414 6.73839 21.5757 6.72417C21.7099 6.70994 21.8445 6.74698 21.9509 6.82739C22.0572 6.9078 22.1269 7.02521 22.145 7.15459C22.1632 7.28398 22.1283 7.41509 22.0479 7.51996L21.8332 7.78553C22.1579 8.18221 22.3357 8.67266 22.3383 9.17856C22.3409 9.68445 22.1681 10.1766 21.8475 10.5764L21.5337 10.9646C21.4577 11.0631 21.4133 11.181 21.4061 11.3037C21.3989 11.4264 21.4292 11.5484 21.4932 11.6545C21.552 11.7407 21.5806 11.8428 21.575 11.9458C21.5693 12.0489 21.5296 12.1475 21.4617 12.2271ZM20.4322 11.7747C20.3577 11.5321 20.3449 11.2756 20.3949 11.0272C20.4448 10.7787 20.5561 10.5456 20.7191 10.3477L21.033 9.9594C21.2412 9.70022 21.336 9.37249 21.2973 9.04648C21.2585 8.72047 21.0892 8.42211 20.8257 8.21537L20.8101 8.20361C20.539 8.00621 20.1988 7.91936 19.8623 7.96169C19.5258 8.00401 19.2198 8.17214 19.0099 8.43003L18.6961 8.81831C18.5368 9.01915 18.3297 9.17983 18.0925 9.28669C17.8552 9.39355 17.5948 9.44344 17.3333 9.43211C17.3091 9.50289 17.3081 9.57918 17.3305 9.65052C17.3528 9.72187 17.3975 9.78479 17.4582 9.83068L20.0023 11.7539C20.063 11.7998 20.1369 11.8264 20.2138 11.8301C20.2908 11.8338 20.367 11.8145 20.4322 11.7747Z" fill="#F85B00"></path></svg> 