<?xml version="1.0" encoding="UTF-8"?> <svg xmlns="http://www.w3.org/2000/svg" width="25" height="23" viewBox="0 0 25 23" fill="none"><path d="M12.4993 18.792C12.7383 18.792 12.972 18.7309 13.1707 18.6164C13.3694 18.502 13.5242 18.3393 13.6157 18.149C13.7072 17.9586 13.7311 17.7492 13.6845 17.5471C13.6378 17.345 13.5228 17.1594 13.3538 17.0138C13.1848 16.8681 12.9695 16.7689 12.7351 16.7287C12.5007 16.6885 12.2577 16.7091 12.0369 16.788C11.8161 16.8668 11.6274 17.0003 11.4947 17.1716C11.3619 17.3429 11.291 17.5443 11.291 17.7503C11.291 18.0266 11.4183 18.2915 11.6449 18.4869C11.8715 18.6822 12.1789 18.792 12.4993 18.792ZM18.541 18.792C18.78 18.792 19.0136 18.7309 19.2123 18.6164C19.411 18.502 19.5659 18.3393 19.6574 18.149C19.7488 17.9586 19.7728 17.7492 19.7261 17.5471C19.6795 17.345 19.5644 17.1594 19.3954 17.0138C19.2264 16.8681 19.0111 16.7689 18.7768 16.7287C18.5424 16.6885 18.2994 16.7091 18.0786 16.788C17.8578 16.8668 17.6691 17.0003 17.5363 17.1716C17.4035 17.3429 17.3327 17.5443 17.3327 17.7503C17.3327 18.0266 17.46 18.2915 17.6866 18.4869C17.9132 18.6822 18.2205 18.792 18.541 18.792ZM18.541 14.6253C18.78 14.6253 19.0136 14.5642 19.2123 14.4498C19.411 14.3353 19.5659 14.1726 19.6574 13.9823C19.7488 13.7919 19.7728 13.5825 19.7261 13.3804C19.6795 13.1784 19.5644 12.9928 19.3954 12.8471C19.2264 12.7014 19.0111 12.6022 18.7768 12.562C18.5424 12.5218 18.2994 12.5424 18.0786 12.6213C17.8578 12.7001 17.6691 12.8336 17.5363 13.0049C17.4035 13.1762 17.3327 13.3776 17.3327 13.5837C17.3327 13.8599 17.46 14.1249 17.6866 14.3202C17.9132 14.5156 18.2205 14.6253 18.541 14.6253ZM12.4993 14.6253C12.7383 14.6253 12.972 14.5642 13.1707 14.4498C13.3694 14.3353 13.5242 14.1726 13.6157 13.9823C13.7072 13.7919 13.7311 13.5825 13.6845 13.3804C13.6378 13.1784 13.5228 12.9928 13.3538 12.8471C13.1848 12.7014 12.9695 12.6022 12.7351 12.562C12.5007 12.5218 12.2577 12.5424 12.0369 12.6213C11.8161 12.7001 11.6274 12.8336 11.4947 13.0049C11.3619 13.1762 11.291 13.3776 11.291 13.5837C11.291 13.8599 11.4183 14.1249 11.6449 14.3202C11.8715 14.5156 12.1789 14.6253 12.4993 14.6253ZM20.9577 2.12533H19.7493V1.08366C19.7493 0.807392 19.622 0.54244 19.3954 0.347089C19.1688 0.151739 18.8615 0.0419922 18.541 0.0419922C18.2205 0.0419922 17.9132 0.151739 17.6866 0.347089C17.46 0.54244 17.3327 0.807392 17.3327 1.08366V2.12533H7.66602V1.08366C7.66602 0.807392 7.53871 0.54244 7.3121 0.347089C7.0855 0.151739 6.77815 0.0419922 6.45768 0.0419922C6.13721 0.0419922 5.82987 0.151739 5.60326 0.347089C5.37666 0.54244 5.24935 0.807392 5.24935 1.08366V2.12533H4.04102C3.07961 2.12533 2.15757 2.45457 1.47775 3.04062C0.797934 3.62667 0.416016 4.42152 0.416016 5.25033V19.8337C0.416016 20.6625 0.797934 21.4573 1.47775 22.0434C2.15757 22.6294 3.07961 22.9587 4.04102 22.9587H20.9577C21.9191 22.9587 22.8411 22.6294 23.5209 22.0434C24.2008 21.4573 24.5827 20.6625 24.5827 19.8337V5.25033C24.5827 4.42152 24.2008 3.62667 23.5209 3.04062C22.8411 2.45457 21.9191 2.12533 20.9577 2.12533ZM22.166 19.8337C22.166 20.1099 22.0387 20.3749 21.8121 20.5702C21.5855 20.7656 21.2782 20.8753 20.9577 20.8753H4.04102C3.72055 20.8753 3.4132 20.7656 3.18659 20.5702C2.95999 20.3749 2.83268 20.1099 2.83268 19.8337V10.4587H22.166V19.8337ZM22.166 8.37533H2.83268V5.25033C2.83268 4.97406 2.95999 4.70911 3.18659 4.51376C3.4132 4.31841 3.72055 4.20866 4.04102 4.20866H5.24935V5.25033C5.24935 5.52659 5.37666 5.79154 5.60326 5.98689C5.82987 6.18225 6.13721 6.29199 6.45768 6.29199C6.77815 6.29199 7.0855 6.18225 7.3121 5.98689C7.53871 5.79154 7.66602 5.52659 7.66602 5.25033V4.20866H17.3327V5.25033C17.3327 5.52659 17.46 5.79154 17.6866 5.98689C17.9132 6.18225 18.2205 6.29199 18.541 6.29199C18.8615 6.29199 19.1688 6.18225 19.3954 5.98689C19.622 5.79154 19.7493 5.52659 19.7493 5.25033V4.20866H20.9577C21.2782 4.20866 21.5855 4.31841 21.8121 4.51376C22.0387 4.70911 22.166 4.97406 22.166 5.25033V8.37533ZM6.45768 14.6253C6.69667 14.6253 6.93029 14.5642 7.129 14.4498C7.3277 14.3353 7.48258 14.1726 7.57404 13.9823C7.66549 13.7919 7.68942 13.5825 7.6428 13.3804C7.59617 13.1784 7.48109 12.9928 7.3121 12.8471C7.14311 12.7014 6.92781 12.6022 6.69342 12.562C6.45902 12.5218 6.21607 12.5424 5.99527 12.6213C5.77448 12.7001 5.58576 12.8336 5.45299 13.0049C5.32022 13.1762 5.24935 13.3776 5.24935 13.5837C5.24935 13.8599 5.37666 14.1249 5.60326 14.3202C5.82987 14.5156 6.13721 14.6253 6.45768 14.6253ZM6.45768 18.792C6.69667 18.792 6.93029 18.7309 7.129 18.6164C7.3277 18.502 7.48258 18.3393 7.57404 18.149C7.66549 17.9586 7.68942 17.7492 7.6428 17.5471C7.59617 17.345 7.48109 17.1594 7.3121 17.0138C7.14311 16.8681 6.92781 16.7689 6.69342 16.7287C6.45902 16.6885 6.21607 16.7091 5.99527 16.788C5.77448 16.8668 5.58576 17.0003 5.45299 17.1716C5.32022 17.3429 5.24935 17.5443 5.24935 17.7503C5.24935 18.0266 5.37666 18.2915 5.60326 18.4869C5.82987 18.6822 6.13721 18.792 6.45768 18.792Z" fill="#F85B00"></path></svg> 