<?xml version="1.0" encoding="UTF-8"?> <svg xmlns="http://www.w3.org/2000/svg" width="22" height="26" viewBox="0 0 22 26" fill="none"><path d="M11.0007 0.5C8.17168 0.5 5.45857 1.55357 3.45818 3.42893C1.45779 5.3043 0.333984 7.84784 0.333984 10.5C0.333984 17.25 9.73398 24.875 10.134 25.2C10.3755 25.3937 10.6828 25.5001 11.0007 25.5001C11.3185 25.5001 11.6258 25.3937 11.8673 25.2C12.334 24.875 21.6673 17.25 21.6673 10.5C21.6673 7.84784 20.5435 5.3043 18.5431 3.42893C16.5427 1.55357 13.8296 0.5 11.0007 0.5ZM11.0007 22.5625C8.16065 20.0625 3.00065 14.675 3.00065 10.5C3.00065 8.51088 3.84351 6.60322 5.3438 5.1967C6.84409 3.79018 8.87892 3 11.0007 3C13.1224 3 15.1572 3.79018 16.6575 5.1967C18.1578 6.60322 19.0007 8.51088 19.0007 10.5C19.0007 14.675 13.8407 20.075 11.0007 22.5625ZM11.0007 5.5C9.94582 5.5 8.91467 5.79324 8.03761 6.34265C7.16055 6.89206 6.47696 7.67295 6.07329 8.58658C5.66963 9.50021 5.56401 10.5055 5.7698 11.4755C5.97558 12.4454 6.48353 13.3363 7.22941 14.0355C7.9753 14.7348 8.9256 15.211 9.96017 15.4039C10.9947 15.5969 12.0671 15.4978 13.0416 15.1194C14.0162 14.741 14.8491 14.1001 15.4352 13.2779C16.0212 12.4556 16.334 11.4889 16.334 10.5C16.334 9.17392 15.7721 7.90215 14.7719 6.96447C13.7717 6.02678 12.4151 5.5 11.0007 5.5ZM11.0007 13C10.4732 13 9.95766 12.8534 9.51913 12.5787C9.0806 12.304 8.73881 11.9135 8.53697 11.4567C8.33514 10.9999 8.28233 10.4972 8.38522 10.0123C8.48812 9.52732 8.74209 9.08186 9.11503 8.73223C9.48797 8.3826 9.96313 8.1445 10.4804 8.04804C10.9977 7.95157 11.5339 8.00108 12.0211 8.1903C12.5084 8.37952 12.9249 8.69995 13.2179 9.11107C13.5109 9.5222 13.6673 10.0055 13.6673 10.5C13.6673 11.163 13.3864 11.7989 12.8863 12.2678C12.3862 12.7366 11.7079 13 11.0007 13Z" fill="#F85B00"></path></svg> 