<?xml version="1.0" encoding="UTF-8"?> <svg xmlns="http://www.w3.org/2000/svg" width="34" height="41" viewBox="0 0 34 41" fill="none"><path d="M28.6663 4.83268H25.333V2.87435C25.333 2.35497 25.1574 1.85686 24.8449 1.4896C24.5323 1.12234 24.1084 0.916016 23.6663 0.916016C23.2243 0.916016 22.8004 1.12234 22.4878 1.4896C22.1753 1.85686 21.9997 2.35497 21.9997 2.87435V4.83268H11.9997V2.87435C11.9997 2.35497 11.8241 1.85686 11.5115 1.4896C11.199 1.12234 10.775 0.916016 10.333 0.916016C9.89098 0.916016 9.46706 1.12234 9.1545 1.4896C8.84194 1.85686 8.66634 2.35497 8.66634 2.87435V4.83268H5.33301C4.00693 4.83268 2.73516 5.45165 1.79747 6.55343C0.859792 7.65521 0.333008 9.14954 0.333008 10.7077V34.2077C0.333008 35.7658 0.859792 37.2602 1.79747 38.3619C2.73516 39.4637 4.00693 40.0827 5.33301 40.0827H28.6663C29.9924 40.0827 31.2642 39.4637 32.2019 38.3619C33.1396 37.2602 33.6663 35.7658 33.6663 34.2077V10.7077C33.6663 9.14954 33.1396 7.65521 32.2019 6.55343C31.2642 5.45165 29.9924 4.83268 28.6663 4.83268ZM30.333 34.2077C30.333 34.7271 30.1574 35.2252 29.8449 35.5924C29.5323 35.9597 29.1084 36.166 28.6663 36.166H5.33301C4.89098 36.166 4.46706 35.9597 4.1545 35.5924C3.84194 35.2252 3.66634 34.7271 3.66634 34.2077V20.4993H30.333V34.2077ZM30.333 16.5827H3.66634V10.7077C3.66634 10.1883 3.84194 9.69019 4.1545 9.32293C4.46706 8.95567 4.89098 8.74935 5.33301 8.74935H8.66634V10.7077C8.66634 11.2271 8.84194 11.7252 9.1545 12.0924C9.46706 12.4597 9.89098 12.666 10.333 12.666C10.775 12.666 11.199 12.4597 11.5115 12.0924C11.8241 11.7252 11.9997 11.2271 11.9997 10.7077V8.74935H21.9997V10.7077C21.9997 11.2271 22.1753 11.7252 22.4878 12.0924C22.8004 12.4597 23.2243 12.666 23.6663 12.666C24.1084 12.666 24.5323 12.4597 24.8449 12.0924C25.1574 11.7252 25.333 11.2271 25.333 10.7077V8.74935H28.6663C29.1084 8.74935 29.5323 8.95567 29.8449 9.32293C30.1574 9.69019 30.333 10.1883 30.333 10.7077V16.5827Z" fill="white"></path></svg> 