<svg width="25" height="26" viewBox="0 0 25 26" fill="none" xmlns="http://www.w3.org/2000/svg">
<g clip-path="url(#clip0_9_300)">
<path d="M6.45911 22.2168H1.92395V7.6123H6.45911V22.2168ZM4.18909 5.62012C2.73889 5.62012 1.56262 4.41895 1.56262 2.96875C1.56262 2.27217 1.83934 1.60412 2.3319 1.11156C2.82445 0.619001 3.4925 0.342285 4.18909 0.342285C4.88567 0.342285 5.55372 0.619001 6.04628 1.11156C6.53884 1.60412 6.81555 2.27217 6.81555 2.96875C6.81555 4.41895 5.63879 5.62012 4.18909 5.62012ZM23.4327 22.2168H18.9073V15.1074C18.9073 13.4131 18.8732 11.2402 16.5494 11.2402C14.1915 11.2402 13.8302 13.0811 13.8302 14.9854V22.2168H9.29993V7.6123H13.6495V9.60449H13.713C14.3185 8.45703 15.7975 7.24609 18.004 7.24609C22.5939 7.24609 23.4376 10.2686 23.4376 14.1943V22.2168H23.4327Z" fill="#570000"/>
</g>
<defs>
<clipPath id="clip0_9_300">
<rect width="25" height="25" fill="white" transform="translate(0.00012207 0.341797)"/>
</clipPath>
</defs>
</svg>
