<svg width="25" height="26" viewBox="0 0 25 26" fill="none" xmlns="http://www.w3.org/2000/svg">
<g clip-path="url(#clip0_9_298)">
<path d="M23.8566 7.11607C23.584 6.08959 22.7808 5.28117 21.761 5.00683C19.9124 4.5083 12.5001 4.5083 12.5001 4.5083C12.5001 4.5083 5.08773 4.5083 3.23917 5.00683C2.21933 5.28122 1.41612 6.08959 1.14351 7.11607C0.648193 8.97662 0.648193 12.8585 0.648193 12.8585C0.648193 12.8585 0.648193 16.7403 1.14351 18.6009C1.41612 19.6274 2.21933 20.4021 3.23917 20.6764C5.08773 21.175 12.5001 21.175 12.5001 21.175C12.5001 21.175 19.9124 21.175 21.761 20.6764C22.7808 20.4021 23.584 19.6274 23.8566 18.6009C24.3519 16.7403 24.3519 12.8585 24.3519 12.8585C24.3519 12.8585 24.3519 8.97662 23.8566 7.11607ZM10.0758 16.3829V9.33404L16.2711 12.8586L10.0758 16.3829Z" fill="#570000"/>
</g>
<defs>
<clipPath id="clip0_9_298">
<rect width="25" height="25" fill="white" transform="translate(0 0.341797)"/>
</clipPath>
</defs>
</svg>
